<svg version="1.1"
	 xmlns="http://www.w3.org/2000/svg" xmlns:xlink="http://www.w3.org/1999/xlink" xmlns:a="http://ns.adobe.com/AdobeSVGViewerExtensions/3.0/"
	 x="0px" y="0px" width="848.842px" height="848.306px" viewBox="0 0 848.842 848.306"
	 overflow="scroll" enable-background="new 0 0 848.842 848.306" xml:space="preserve">
<defs>
</defs>
<g>
	<path fill="#B32025" d="M122.257,496.847c0-199.008,161.329-360.337,360.337-360.337c198.399,0,359.308,160.352,360.292,358.52
		c3.85-22.975,5.957-46.541,5.957-70.61C848.842,190.02,658.823,0,424.421,0C190.02,0,0,190.02,0,424.421
		c0,227.291,178.672,412.837,403.222,423.885C242.42,812.14,122.257,668.572,122.257,496.847z"/>
	<path fill="#B32025" d="M228.769,572.012c0-152.582,123.692-276.274,276.274-276.274c148.495,0,269.583,117.165,275.966,264.088
		c2.477-15.419,3.809-31.22,3.809-47.337c0-163.638-132.656-296.294-296.294-296.294c-163.639,0-296.294,132.656-296.294,296.294
		c0,72.693,26.221,139.234,69.664,190.786C240.771,664.228,228.769,619.523,228.769,572.012z"/>
</g>
</svg>